<?xml version="1.0" standalone="no"?>
<!DOCTYPE svg PUBLIC "-//W3C//DTD SVG 20010904//EN"
 "http://www.w3.org/TR/2001/REC-SVG-20010904/DTD/svg10.dtd">
<svg version="1.0" xmlns="http://www.w3.org/2000/svg"
 width="229.000000pt" height="229.000000pt" viewBox="0 0 229.000000 229.000000"
 preserveAspectRatio="xMidYMid meet">

<g transform="translate(0.000000,229.000000) scale(0.100000,-0.100000)"
fill="#000000" stroke="none">
<path d="M855 2243 c-50 -11 -182 -56 -217 -74 -114 -58 -266 -176 -344 -265
-66 -77 -128 -164 -116 -164 12 0 42 34 42 48 0 7 5 12 10 12 6 0 10 6 10 12
0 13 157 168 198 195 32 22 126 18 160 -6 15 -10 30 -19 34 -20 4 -1 13 -3 20
-6 7 -2 23 -3 36 -2 19 2 28 -9 53 -68 50 -116 126 -252 159 -285 18 -18 80
-100 80 -105 0 -4 53 -69 118 -145 64 -75 135 -163 157 -195 22 -31 47 -64 55
-73 8 -8 15 -18 16 -21 0 -3 6 -19 12 -34 7 -16 12 -37 12 -48 0 -10 5 -19 11
-19 7 0 10 -12 7 -30 -3 -22 2 -37 16 -53 19 -21 22 -30 18 -64 -2 -9 -32 -12
-116 -10 -117 3 -135 -4 -80 -33 38 -21 28 -32 -23 -28 -39 2 -48 0 -51 -14
-2 -13 3 -18 18 -18 12 0 18 -4 15 -10 -3 -5 6 -12 20 -16 24 -6 36 -24 15
-24 -13 0 15 -28 58 -59 18 -13 31 -28 29 -34 -6 -20 -66 -25 -144 -11 -58 10
-80 10 -91 2 -11 -10 -5 -16 34 -35 26 -13 76 -33 111 -44 35 -12 63 -24 63
-26 0 -6 -169 5 -222 15 -64 13 -218 15 -218 4 0 -32 123 -114 235 -158 87
-34 91 -37 78 -68 -8 -17 -8 -27 0 -35 19 -19 -8 -34 -55 -33 -56 2 -242 29
-293 42 -35 9 -113 24 -180 34 -11 1 -30 8 -41 14 -45 24 -170 47 -179 33 -6
-11 79 -90 150 -137 195 -131 469 -199 708 -174 407 41 746 271 921 624 66
133 119 330 101 373 -4 10 -10 68 -12 128 -4 115 -35 245 -58 245 -6 0 -17 11
-23 25 -6 14 -16 25 -21 25 -5 0 -24 24 -42 53 -52 81 -154 204 -240 290 -43
42 -81 77 -83 77 -2 0 -23 16 -45 37 -23 20 -52 43 -65 52 -14 9 -54 37 -89
63 -79 58 -294 167 -399 203 -102 34 -266 53 -333 38z m395 -745 c0 -6 -7 -5
-15 2 -8 7 -15 17 -15 22 0 6 7 5 15 -2 8 -7 15 -17 15 -22z m90 -110 c0 -5
-7 -3 -15 6 -8 8 -15 18 -15 22 0 3 7 1 15 -6 8 -7 15 -17 15 -22z"/>
<path d="M156 1714 c-5 -14 -4 -15 9 -4 17 14 19 20 6 20 -5 0 -12 -7 -15 -16z"/>
</g>
</svg>
