<svg width="901" height="151" viewBox="0 0 901 151" fill="none" xmlns="http://www.w3.org/2000/svg">
<path d="M28.8 0H109.7C122.9 0 133.4 2.5 141.2 7.5C149 12.5 152.9 19.2 152.9 27.6C152.9 29.4 152.7 31.3 152.2 33.4L149.5 46.5C148.1 53 144.6 58.7 139 63.5C133.4 68.3 126.1 72 117.2 74.5V74.9C121.6 77.5 124.7 80.5 126.4 83.9C128.1 87.3 129.5 92 130.6 98L136.3 131.4H103.8L98.3 100.3C97.4 94.9 95.5001 90.9 92.6001 88.3C89.7001 85.7 85.7001 84.4 80.6001 84.4H42.2001L32.2 131.5H0.800049L28.8 0ZM94.2001 61.9C100.6 61.9 105.9 60.5 110.2 57.7C114.5 54.9 117.1 51.2 118 46.7L120.5 34.5C120.6 34 120.7 33.3 120.7 32.2C120.7 29.2 119.6 26.8 117.3 25.1C115 23.3 111.9 22.5 108 22.5H55.4L47 61.9H94.2001Z" fill="url(#paint0_linear_840_6)"/>
<mask id="mask0_840_6" style="mask-type:luminance" maskUnits="userSpaceOnUse" x="0" y="0" width="153" height="132">
<path d="M28.8 0H109.7C122.9 0 133.4 2.5 141.2 7.5C149 12.5 152.9 19.2 152.9 27.6C152.9 29.4 152.7 31.3 152.2 33.4L149.5 46.5C148.1 53 144.6 58.7 139 63.5C133.4 68.3 126.1 72 117.2 74.5V74.9C121.6 77.5 124.7 80.5 126.4 83.9C128.1 87.3 129.5 92 130.6 98L136.3 131.4H103.8L98.3 100.3C97.4 94.9 95.5001 90.9 92.6001 88.3C89.7001 85.7 85.7001 84.4 80.6001 84.4H42.2001L32.2 131.5H0.800049L28.8 0ZM94.2001 61.9C100.6 61.9 105.9 60.5 110.2 57.7C114.5 54.9 117.1 51.2 118 46.7L120.5 34.5C120.6 34 120.7 33.3 120.7 32.2C120.7 29.2 119.6 26.8 117.3 25.1C115 23.3 111.9 22.5 108 22.5H55.4L47 61.9H94.2001Z" fill="white"/>
</mask>
<g mask="url(#mask0_840_6)">
<path d="M900.8 0H0.800049V150H900.8V0Z" fill="url(#paint1_linear_840_6)"/>
</g>
<path d="M281.1 108.7L276.1 131.2H177C171.2 131.2 166.7 129.9 163.4 127.4C160.1 124.8 158.4 121.4 158.4 117.2C158.4 116.6 158.5 115.4 158.9 113.6L159.9 108.7H281.1V108.7Z" fill="url(#paint2_linear_840_6)"/>
<mask id="mask1_840_6" style="mask-type:luminance" maskUnits="userSpaceOnUse" x="158" y="108" width="124" height="24">
<path d="M281.1 108.7L276.1 131.2H177C171.2 131.2 166.7 129.9 163.4 127.4C160.1 124.8 158.4 121.4 158.4 117.2C158.4 116.6 158.5 115.4 158.9 113.6L159.9 108.7H281.1V108.7Z" fill="white"/>
</mask>
<g mask="url(#mask1_840_6)">
<path d="M900.8 0H0.800049V150H900.8V0Z" fill="url(#paint3_linear_840_6)"/>
</g>
<path d="M286.1 52.8999L281.3 75.3999H167L171.8 52.8999H286.1Z" fill="url(#paint4_linear_840_6)"/>
<mask id="mask2_840_6" style="mask-type:luminance" maskUnits="userSpaceOnUse" x="167" y="52" width="120" height="24">
<path d="M286.1 52.8999L281.3 75.3999H167L171.8 52.8999H286.1Z" fill="white"/>
</mask>
<g mask="url(#mask2_840_6)">
<path d="M900.8 0H0.800049V150H900.8V0Z" fill="url(#paint5_linear_840_6)"/>
</g>
<path d="M304.3 0L299.5 22.5H178.3L183.1 0H304.3Z" fill="url(#paint6_linear_840_6)"/>
<mask id="mask3_840_6" style="mask-type:luminance" maskUnits="userSpaceOnUse" x="178" y="0" width="127" height="23">
<path d="M304.3 0L299.5 22.5H178.3L183.1 0H304.3Z" fill="white"/>
</mask>
<g mask="url(#mask3_840_6)">
<path d="M900.8 0H0.800049V150H900.8V0Z" fill="url(#paint7_linear_840_6)"/>
</g>
<path d="M325.6 0H352.2L410.8 89.2L429.9 0H460.6L432.6 131.2H406L347.4 42L328.3 131.2H297.6L325.6 0Z" fill="url(#paint8_linear_840_6)"/>
<mask id="mask4_840_6" style="mask-type:luminance" maskUnits="userSpaceOnUse" x="297" y="0" width="164" height="132">
<path d="M325.6 0H352.2L410.8 89.2L429.9 0H460.6L432.6 131.2H406L347.4 42L328.3 131.2H297.6L325.6 0Z" fill="white"/>
</mask>
<g mask="url(#mask4_840_6)">
<path d="M900.8 0H0.800049V150H900.8V0Z" fill="url(#paint9_linear_840_6)"/>
</g>
<path d="M561.8 100.7H502L481.5 131.3H447.6L537.9 0H552C561.8 0 567.8 3.7 569.7 11.2L600.6 131.2H569L561.8 100.7ZM515.2 78.9H557.9L547 31.7H546.8L515.2 78.9Z" fill="url(#paint10_linear_840_6)"/>
<mask id="mask5_840_6" style="mask-type:luminance" maskUnits="userSpaceOnUse" x="447" y="0" width="154" height="132">
<path d="M561.8 100.7H502L481.5 131.3H447.6L537.9 0H552C561.8 0 567.8 3.7 569.7 11.2L600.6 131.2H569L561.8 100.7ZM515.2 78.9H557.9L547 31.7H546.8L515.2 78.9Z" fill="white"/>
</mask>
<g mask="url(#mask5_840_6)">
<path d="M900.8 0H0.800049V150H900.8V0Z" fill="url(#paint11_linear_840_6)"/>
</g>
<path d="M619.1 128.3C615.3 125.9 613.4 122.6 613.4 118.5C613.4 117.6 613.5 116.6 613.7 115.7H628.9C628.8 116 628.8 116.3 628.8 116.7C628.8 118.1 629.4 119.3 630.5 120.1C631.6 120.9 633.2 121.3 635.3 121.3H645.5C647.7 121.3 649.4 121 650.7 120.5C652 120 652.7 119.2 653 118.2L653.3 116.6C653.5 116 653.2 115.4 652.6 114.9C652 114.4 651 114 649.8 113.8L630.8 111C626.8 110.4 623.6 109.2 621.4 107.5C619.1 105.8 618 103.7 618 101.3C618 100.9 618.1 100.4 618.2 99.6L618.9 96.5C619.7 92.5 622.3 89.4 626.5 87.1C630.7 84.8 636.1 83.7 642.7 83.7H651.6C657.7 83.7 662.6 84.8 666.2 87.1C669.8 89.4 671.6 92.4 671.6 96.2C671.6 97 671.5 97.9 671.3 98.8H656.1C656.2 98.6 656.2 98.3 656.2 98C656.2 96.9 655.7 96 654.8 95.3C653.9 94.6 652.6 94.3 651 94.3H642.4C640.1 94.3 638.3 94.6 636.9 95.1C635.5 95.6 634.7 96.3 634.5 97.2L634.2 98.7C634 99.3 634.2 99.9 634.8 100.4C635.3 100.9 636.2 101.2 637.4 101.4L657.4 104.5C661.2 105.1 664.2 106.3 666.3 108C668.5 109.7 669.5 111.7 669.5 114C669.5 114.6 669.5 115.1 669.4 115.4L668.7 118.8C667.9 123 665.4 126.2 661.3 128.6C657.2 130.9 651.8 132.1 645.2 132.1H635C628.1 132 622.9 130.8 619.1 128.3Z" fill="url(#paint12_linear_840_6)"/>
<mask id="mask6_840_6" style="mask-type:luminance" maskUnits="userSpaceOnUse" x="613" y="83" width="59" height="50">
<path d="M619.1 128.3C615.3 125.9 613.4 122.6 613.4 118.5C613.4 117.6 613.5 116.6 613.7 115.7H628.9C628.8 116 628.8 116.3 628.8 116.7C628.8 118.1 629.4 119.3 630.5 120.1C631.6 120.9 633.2 121.3 635.3 121.3H645.5C647.7 121.3 649.4 121 650.7 120.5C652 120 652.7 119.2 653 118.2L653.3 116.6C653.5 116 653.2 115.4 652.6 114.9C652 114.4 651 114 649.8 113.8L630.8 111C626.8 110.4 623.6 109.2 621.4 107.5C619.1 105.8 618 103.7 618 101.3C618 100.9 618.1 100.4 618.2 99.6L618.9 96.5C619.7 92.5 622.3 89.4 626.5 87.1C630.7 84.8 636.1 83.7 642.7 83.7H651.6C657.7 83.7 662.6 84.8 666.2 87.1C669.8 89.4 671.6 92.4 671.6 96.2C671.6 97 671.5 97.9 671.3 98.8H656.1C656.2 98.6 656.2 98.3 656.2 98C656.2 96.9 655.7 96 654.8 95.3C653.9 94.6 652.6 94.3 651 94.3H642.4C640.1 94.3 638.3 94.6 636.9 95.1C635.5 95.6 634.7 96.3 634.5 97.2L634.2 98.7C634 99.3 634.2 99.9 634.8 100.4C635.3 100.9 636.2 101.2 637.4 101.4L657.4 104.5C661.2 105.1 664.2 106.3 666.3 108C668.5 109.7 669.5 111.7 669.5 114C669.5 114.6 669.5 115.1 669.4 115.4L668.7 118.8C667.9 123 665.4 126.2 661.3 128.6C657.2 130.9 651.8 132.1 645.2 132.1H635C628.1 132 622.9 130.8 619.1 128.3Z" fill="white"/>
</mask>
<g mask="url(#mask6_840_6)">
<path d="M900.8 0H0.800049V150H900.8V0Z" fill="url(#paint13_linear_840_6)"/>
</g>
<path d="M685.5 84.5H699.8L698.8 89.6C700.8 87.7 702.9 86.3 705.3 85.3C707.7 84.3 709.9 83.8 712 83.8H718.8C725.3 83.8 730.5 85.1 734.3 87.7C738.1 90.3 740 93.9 740 98.4C740 99.1 739.8 100.3 739.5 102L737.2 112.5C735.9 118.6 733 123.4 728.6 126.9C724.2 130.4 718.6 132.1 712 132.1H704.6C702 132.1 699.6 131.7 697.2 130.9C694.8 130.1 693 129 691.7 127.6L686.9 150.1H671.4L685.5 84.5ZM710.7 121C713.6 121 716 120.2 718.1 118.5C720.1 116.8 721.5 114.5 722.1 111.5L723.9 102.9C724.1 102 724.1 101.4 724.1 101.1C724.1 99.2 723.4 97.6 722 96.5C720.6 95.3 718.7 94.8 716.3 94.8H709.5C707.3 94.8 705.1 95.5 702.8 97C700.5 98.5 698.7 100.4 697.2 102.7L695.3 112C695 114.8 695.6 117 697.2 118.7C698.8 120.4 700.9 121.2 703.7 121.2H710.7V121Z" fill="url(#paint14_linear_840_6)"/>
<mask id="mask7_840_6" style="mask-type:luminance" maskUnits="userSpaceOnUse" x="671" y="83" width="69" height="68">
<path d="M685.5 84.5H699.8L698.8 89.6C700.8 87.7 702.9 86.3 705.3 85.3C707.7 84.3 709.9 83.8 712 83.8H718.8C725.3 83.8 730.5 85.1 734.3 87.7C738.1 90.3 740 93.9 740 98.4C740 99.1 739.8 100.3 739.5 102L737.2 112.5C735.9 118.6 733 123.4 728.6 126.9C724.2 130.4 718.6 132.1 712 132.1H704.6C702 132.1 699.6 131.7 697.2 130.9C694.8 130.1 693 129 691.7 127.6L686.9 150.1H671.4L685.5 84.5ZM710.7 121C713.6 121 716 120.2 718.1 118.5C720.1 116.8 721.5 114.5 722.1 111.5L723.9 102.9C724.1 102 724.1 101.4 724.1 101.1C724.1 99.2 723.4 97.6 722 96.5C720.6 95.3 718.7 94.8 716.3 94.8H709.5C707.3 94.8 705.1 95.5 702.8 97C700.5 98.5 698.7 100.4 697.2 102.7L695.3 112C695 114.8 695.6 117 697.2 118.7C698.8 120.4 700.9 121.2 703.7 121.2H710.7V121Z" fill="white"/>
</mask>
<g mask="url(#mask7_840_6)">
<path d="M900.8 0H0.800049V150H900.8V0Z" fill="url(#paint15_linear_840_6)"/>
</g>
<path d="M751.5 127.8C747.4 125 745.4 121.3 745.4 116.8C745.4 115.7 745.5 114.5 745.7 113.4L748.1 102.4C749.4 96.5001 752.4 91.9001 757.1 88.6001C761.8 85.3001 767.7 83.6001 774.8 83.6001H784.9C791.8 83.6001 797.2 85.0001 801.3 87.7001C805.3 90.4001 807.3 94.1001 807.3 98.7001C807.3 99.4001 807.1 100.6 806.8 102.4L804.4 113.4C803.1 119.3 800.2 123.8 795.5 127.1C790.9 130.4 784.9 132 777.5 132H767.4C760.9 132 755.6 130.6 751.5 127.8ZM778.3 121C781.2 121 783.6 120.2 785.6 118.7C787.6 117.2 788.8 115.1 789.3 112.4L791.2 103.3C791.4 102.3 791.4 101.6 791.4 101.2C791.4 99.2001 790.7 97.6001 789.4 96.4001C788.1 95.2001 786.2 94.6001 783.9 94.6001H774.2C771.3 94.6001 768.9 95.4001 767 96.9001C765.1 98.4001 763.8 100.5 763.3 103.2L761.4 112.3C761.2 113.3 761.2 114 761.2 114.5C761.2 116.5 761.9 118.1 763.2 119.2C764.5 120.4 766.3 120.9 768.6 120.9H778.3V121Z" fill="url(#paint16_linear_840_6)"/>
<mask id="mask8_840_6" style="mask-type:luminance" maskUnits="userSpaceOnUse" x="745" y="83" width="63" height="49">
<path d="M751.5 127.8C747.4 125 745.4 121.3 745.4 116.8C745.4 115.7 745.5 114.5 745.7 113.4L748.1 102.4C749.4 96.5001 752.4 91.9001 757.1 88.6001C761.8 85.3001 767.7 83.6001 774.8 83.6001H784.9C791.8 83.6001 797.2 85.0001 801.3 87.7001C805.3 90.4001 807.3 94.1001 807.3 98.7001C807.3 99.4001 807.1 100.6 806.8 102.4L804.4 113.4C803.1 119.3 800.2 123.8 795.5 127.1C790.9 130.4 784.9 132 777.5 132H767.4C760.9 132 755.6 130.6 751.5 127.8ZM778.3 121C781.2 121 783.6 120.2 785.6 118.7C787.6 117.2 788.8 115.1 789.3 112.4L791.2 103.3C791.4 102.3 791.4 101.6 791.4 101.2C791.4 99.2001 790.7 97.6001 789.4 96.4001C788.1 95.2001 786.2 94.6001 783.9 94.6001H774.2C771.3 94.6001 768.9 95.4001 767 96.9001C765.1 98.4001 763.8 100.5 763.3 103.2L761.4 112.3C761.2 113.3 761.2 114 761.2 114.5C761.2 116.5 761.9 118.1 763.2 119.2C764.5 120.4 766.3 120.9 768.6 120.9H778.3V121Z" fill="white"/>
</mask>
<g mask="url(#mask8_840_6)">
<path d="M900.8 0H0.800049V150H900.8V0Z" fill="url(#paint17_linear_840_6)"/>
</g>
<path d="M821.7 84.5H835.9L834.8 90.5C836.8 88.6 839.2 87.1 842 86C844.8 84.9 847.7 84.3 850.6 84.3H858.4L856 95.4H848.3C844.3 95.4 840.8 96.4 837.9 98.4C835 100.4 833.2 103 832.5 106.1L827.2 131.3H811.7L821.7 84.5Z" fill="url(#paint18_linear_840_6)"/>
<mask id="mask9_840_6" style="mask-type:luminance" maskUnits="userSpaceOnUse" x="811" y="84" width="48" height="48">
<path d="M821.7 84.5H835.9L834.8 90.5C836.8 88.6 839.2 87.1 842 86C844.8 84.9 847.7 84.3 850.6 84.3H858.4L856 95.4H848.3C844.3 95.4 840.8 96.4 837.9 98.4C835 100.4 833.2 103 832.5 106.1L827.2 131.3H811.7L821.7 84.5Z" fill="white"/>
</mask>
<g mask="url(#mask9_840_6)">
<path d="M900.8 0H0.800049V150H900.8V0Z" fill="url(#paint19_linear_840_6)"/>
</g>
<path d="M867.5 128.6C864.8 126.8 863.4 124.1 863.4 120.3C863.4 119.1 863.6 117.6 864 115.9L868.4 95.4H858.4L860.7 84.5H871.2L874.3 70.3H889.3L886.2 84.5H900.8L898.5 95.4H883.8L879.5 115.4C879.3 116.3 879.3 116.9 879.3 117.2C879.3 119.4 880.7 120.5 883.5 120.5H893.2L890.8 131.4H880C874.4 131.3 870.2 130.4 867.5 128.6Z" fill="url(#paint20_linear_840_6)"/>
<mask id="mask10_840_6" style="mask-type:luminance" maskUnits="userSpaceOnUse" x="858" y="70" width="43" height="62">
<path d="M867.5 128.6C864.8 126.8 863.4 124.1 863.4 120.3C863.4 119.1 863.6 117.6 864 115.9L868.4 95.4H858.4L860.7 84.5H871.2L874.3 70.3H889.3L886.2 84.5H900.8L898.5 95.4H883.8L879.5 115.4C879.3 116.3 879.3 116.9 879.3 117.2C879.3 119.4 880.7 120.5 883.5 120.5H893.2L890.8 131.4H880C874.4 131.3 870.2 130.4 867.5 128.6Z" fill="white"/>
</mask>
<g mask="url(#mask10_840_6)">
<path d="M900.8 0H0.800049V150H900.8V0Z" fill="url(#paint21_linear_840_6)"/>
</g>
<defs>
<linearGradient id="paint0_linear_840_6" x1="0.800049" y1="65.6257" x2="152.867" y2="65.6257" gradientUnits="userSpaceOnUse">
<stop stop-color="#2185E9"/>
<stop offset="1" stop-color="#85E921"/>
</linearGradient>
<linearGradient id="paint1_linear_840_6" x1="0.800049" y1="75" x2="900.8" y2="75" gradientUnits="userSpaceOnUse">
<stop stop-color="#2185E9"/>
<stop offset="1" stop-color="#85E921"/>
</linearGradient>
<linearGradient id="paint2_linear_840_6" x1="158.325" y1="120" x2="281.062" y2="120" gradientUnits="userSpaceOnUse">
<stop stop-color="#2185E9"/>
<stop offset="1" stop-color="#85E921"/>
</linearGradient>
<linearGradient id="paint3_linear_840_6" x1="0.800049" y1="75" x2="900.8" y2="75" gradientUnits="userSpaceOnUse">
<stop stop-color="#2185E9"/>
<stop offset="1" stop-color="#85E921"/>
</linearGradient>
<linearGradient id="paint4_linear_840_6" x1="166.969" y1="64.1269" x2="286.065" y2="64.1269" gradientUnits="userSpaceOnUse">
<stop stop-color="#2185E9"/>
<stop offset="1" stop-color="#85E921"/>
</linearGradient>
<linearGradient id="paint5_linear_840_6" x1="0.800049" y1="75" x2="900.8" y2="75" gradientUnits="userSpaceOnUse">
<stop stop-color="#2185E9"/>
<stop offset="1" stop-color="#85E921"/>
</linearGradient>
<linearGradient id="paint6_linear_840_6" x1="178.287" y1="11.2508" x2="304.254" y2="11.2508" gradientUnits="userSpaceOnUse">
<stop stop-color="#2185E9"/>
<stop offset="1" stop-color="#85E921"/>
</linearGradient>
<linearGradient id="paint7_linear_840_6" x1="0.800049" y1="75" x2="900.8" y2="75" gradientUnits="userSpaceOnUse">
<stop stop-color="#2185E9"/>
<stop offset="1" stop-color="#85E921"/>
</linearGradient>
<linearGradient id="paint8_linear_840_6" x1="297.655" y1="65.6257" x2="460.632" y2="65.6257" gradientUnits="userSpaceOnUse">
<stop stop-color="#2185E9"/>
<stop offset="1" stop-color="#85E921"/>
</linearGradient>
<linearGradient id="paint9_linear_840_6" x1="0.800049" y1="75" x2="900.8" y2="75" gradientUnits="userSpaceOnUse">
<stop stop-color="#2185E9"/>
<stop offset="1" stop-color="#85E921"/>
</linearGradient>
<linearGradient id="paint10_linear_840_6" x1="447.674" y1="65.6257" x2="600.648" y2="65.6257" gradientUnits="userSpaceOnUse">
<stop stop-color="#2185E9"/>
<stop offset="1" stop-color="#85E921"/>
</linearGradient>
<linearGradient id="paint11_linear_840_6" x1="0.800049" y1="75" x2="900.8" y2="75" gradientUnits="userSpaceOnUse">
<stop stop-color="#2185E9"/>
<stop offset="1" stop-color="#85E921"/>
</linearGradient>
<linearGradient id="paint12_linear_840_6" x1="613.376" y1="107.86" x2="671.452" y2="107.86" gradientUnits="userSpaceOnUse">
<stop stop-color="#2185E9"/>
<stop offset="1" stop-color="#85E921"/>
</linearGradient>
<linearGradient id="paint13_linear_840_6" x1="0.800049" y1="75" x2="900.8" y2="75" gradientUnits="userSpaceOnUse">
<stop stop-color="#2185E9"/>
<stop offset="1" stop-color="#85E921"/>
</linearGradient>
<linearGradient id="paint14_linear_840_6" x1="671.568" y1="116.86" x2="739.985" y2="116.86" gradientUnits="userSpaceOnUse">
<stop stop-color="#2185E9"/>
<stop offset="1" stop-color="#85E921"/>
</linearGradient>
<linearGradient id="paint15_linear_840_6" x1="0.800049" y1="75" x2="900.8" y2="75" gradientUnits="userSpaceOnUse">
<stop stop-color="#2185E9"/>
<stop offset="1" stop-color="#85E921"/>
</linearGradient>
<linearGradient id="paint16_linear_840_6" x1="745.439" y1="107.86" x2="807.379" y2="107.86" gradientUnits="userSpaceOnUse">
<stop stop-color="#2185E9"/>
<stop offset="1" stop-color="#85E921"/>
</linearGradient>
<linearGradient id="paint17_linear_840_6" x1="0.800049" y1="75" x2="900.8" y2="75" gradientUnits="userSpaceOnUse">
<stop stop-color="#2185E9"/>
<stop offset="1" stop-color="#85E921"/>
</linearGradient>
<linearGradient id="paint18_linear_840_6" x1="811.699" y1="107.766" x2="858.409" y2="107.766" gradientUnits="userSpaceOnUse">
<stop stop-color="#2185E9"/>
<stop offset="1" stop-color="#85E921"/>
</linearGradient>
<linearGradient id="paint19_linear_840_6" x1="0.800049" y1="75" x2="900.8" y2="75" gradientUnits="userSpaceOnUse">
<stop stop-color="#2185E9"/>
<stop offset="1" stop-color="#85E921"/>
</linearGradient>
<linearGradient id="paint20_linear_840_6" x1="858.407" y1="100.782" x2="900.8" y2="100.782" gradientUnits="userSpaceOnUse">
<stop stop-color="#2185E9"/>
<stop offset="1" stop-color="#85E921"/>
</linearGradient>
<linearGradient id="paint21_linear_840_6" x1="0.800049" y1="75" x2="900.8" y2="75" gradientUnits="userSpaceOnUse">
<stop stop-color="#2185E9"/>
<stop offset="1" stop-color="#85E921"/>
</linearGradient>
</defs>
</svg>
